# xmcd
#
# Track frame offsets:
#	150
#	15697
#	33772
#	55957
#	70817
#	102667
#	129822
#	144042
#	160967
#	171032
#	191117
#
# Disc length: 2905 seconds
#
# Revision: 1
# Processed by: cddbd v1.5.1PL0 Copyright (c) Steve Scherf et al.
# Submitted via: audiograbber 1.83.01
#
DISCID=8d0b570b
DTITLE=Lynn Roberts - We Are the Body
DYEAR=1900
DGENRE=Gospel
TTITLE0=Nothing But the Love of Jesus
TTITLE1=Hair of Silver - Heart of Gold
TTITLE2=It's Called the Love of Jesus
TTITLE3=I'll Never Throw You Away
TTITLE4=The Little Silver Cross
TTITLE5=I Surrender
TTITLE6=I Just Heard About Jesus
TTITLE7=My Grace is Sufficient for Thee
TTITLE8=Oh Heavenly Father
TTITLE9=Tribute To A Little Country Church
TTITLE10=We Are the Body
EXTD=
EXTT0=
EXTT1=
EXTT2=
EXTT3=
EXTT4=
EXTT5=
EXTT6=
EXTT7=
EXTT8=
EXTT9=
EXTT10=
PLAYORDER=
